<mxfile host="Electron" agent="Mozilla/5.0 (Windows NT 10.0; Win64; x64) AppleWebKit/537.36 (KHTML, like Gecko) draw.io/27.0.9 Chrome/134.0.6998.205 Electron/35.4.0 Safari/537.36" version="27.0.9">
  <diagram id="C5RBs43oDa-KdzZeNtuy" name="Page-1">
    <mxGraphModel dx="858" dy="622" grid="1" gridSize="10" guides="1" tooltips="1" connect="1" arrows="1" fold="1" page="1" pageScale="1" pageWidth="827" pageHeight="1169" math="0" shadow="0">
      <root>
        <mxCell id="WIyWlLk6GJQsqaUBKTNV-0" />
        <mxCell id="WIyWlLk6GJQsqaUBKTNV-1" parent="WIyWlLk6GJQsqaUBKTNV-0" />
        <mxCell id="vjTtgqNxDpk3LenjdOiB-16" value="" style="rounded=0;html=1;jettySize=auto;orthogonalLoop=1;fontSize=11;endArrow=block;endFill=0;endSize=8;strokeWidth=2;shadow=0;labelBackgroundColor=none;edgeStyle=orthogonalEdgeStyle;exitX=0.5;exitY=1;exitDx=0;exitDy=0;strokeColor=#FFB570;curved=0;fontFamily=Aptos;" edge="1" parent="WIyWlLk6GJQsqaUBKTNV-1" source="vjTtgqNxDpk3LenjdOiB-6">
          <mxGeometry relative="1" as="geometry">
            <mxPoint x="540" y="342" as="sourcePoint" />
            <mxPoint x="540" y="360" as="targetPoint" />
          </mxGeometry>
        </mxCell>
        <mxCell id="1J9oD_xFTNlerYvm4jw5-1" value="" style="rounded=0;html=1;jettySize=auto;orthogonalLoop=1;fontSize=11;endArrow=block;endFill=0;endSize=8;strokeWidth=2;shadow=0;labelBackgroundColor=none;edgeStyle=orthogonalEdgeStyle;exitX=0.5;exitY=1;exitDx=0;exitDy=0;entryX=0.5;entryY=0;entryDx=0;entryDy=0;strokeColor=#FFB570;curved=0;fontFamily=Aptos;" parent="WIyWlLk6GJQsqaUBKTNV-1" source="WIyWlLk6GJQsqaUBKTNV-7" target="WIyWlLk6GJQsqaUBKTNV-11" edge="1">
          <mxGeometry relative="1" as="geometry">
            <mxPoint x="380" y="140" as="sourcePoint" />
            <mxPoint x="220" y="240" as="targetPoint" />
          </mxGeometry>
        </mxCell>
        <mxCell id="vjTtgqNxDpk3LenjdOiB-15" value="" style="rounded=0;html=1;jettySize=auto;orthogonalLoop=1;fontSize=11;endArrow=block;endFill=0;endSize=8;strokeWidth=2;shadow=0;labelBackgroundColor=none;edgeStyle=orthogonalEdgeStyle;exitX=0.5;exitY=1;exitDx=0;exitDy=0;entryX=0.5;entryY=0;entryDx=0;entryDy=0;strokeColor=#FFB570;curved=0;fontFamily=Aptos;" edge="1" parent="WIyWlLk6GJQsqaUBKTNV-1" source="vjTtgqNxDpk3LenjdOiB-1">
          <mxGeometry relative="1" as="geometry">
            <mxPoint x="539.92" y="120" as="sourcePoint" />
            <mxPoint x="539.92" y="150" as="targetPoint" />
          </mxGeometry>
        </mxCell>
        <mxCell id="vjTtgqNxDpk3LenjdOiB-4" value="" style="rounded=0;html=1;jettySize=auto;orthogonalLoop=1;fontSize=11;endArrow=block;endFill=0;endSize=8;strokeWidth=2;shadow=0;labelBackgroundColor=none;edgeStyle=orthogonalEdgeStyle;exitX=0.5;exitY=1;exitDx=0;exitDy=0;entryX=0.5;entryY=0;entryDx=0;entryDy=0;strokeColor=#FFB570;curved=0;fontFamily=Aptos;" edge="1" parent="WIyWlLk6GJQsqaUBKTNV-1" source="vjTtgqNxDpk3LenjdOiB-2" target="vjTtgqNxDpk3LenjdOiB-3">
          <mxGeometry relative="1" as="geometry">
            <mxPoint x="660" y="140" as="sourcePoint" />
            <mxPoint x="500" y="240" as="targetPoint" />
          </mxGeometry>
        </mxCell>
        <mxCell id="vjTtgqNxDpk3LenjdOiB-9" value="" style="rounded=0;html=1;jettySize=auto;orthogonalLoop=1;fontSize=11;endArrow=block;endFill=0;endSize=8;strokeWidth=2;shadow=0;labelBackgroundColor=none;edgeStyle=orthogonalEdgeStyle;exitX=0.5;exitY=1;exitDx=0;exitDy=0;entryX=0.5;entryY=0;entryDx=0;entryDy=0;strokeColor=#FFB570;curved=0;fontFamily=Aptos;" edge="1" parent="WIyWlLk6GJQsqaUBKTNV-1" source="vjTtgqNxDpk3LenjdOiB-7" target="vjTtgqNxDpk3LenjdOiB-8">
          <mxGeometry relative="1" as="geometry">
            <mxPoint x="660" y="350" as="sourcePoint" />
            <mxPoint x="500" y="450" as="targetPoint" />
          </mxGeometry>
        </mxCell>
        <mxCell id="vjTtgqNxDpk3LenjdOiB-11" value="" style="rounded=0;html=1;jettySize=auto;orthogonalLoop=1;fontSize=11;endArrow=block;endFill=0;endSize=8;strokeWidth=2;shadow=0;labelBackgroundColor=none;edgeStyle=orthogonalEdgeStyle;exitX=0.5;exitY=1;exitDx=0;exitDy=0;entryX=0.5;entryY=0;entryDx=0;entryDy=0;strokeColor=#FFB570;curved=0;fontFamily=Aptos;" edge="1" parent="WIyWlLk6GJQsqaUBKTNV-1" target="vjTtgqNxDpk3LenjdOiB-10" source="vjTtgqNxDpk3LenjdOiB-8">
          <mxGeometry relative="1" as="geometry">
            <mxPoint x="540" y="470" as="sourcePoint" />
            <mxPoint x="500" y="520" as="targetPoint" />
          </mxGeometry>
        </mxCell>
        <mxCell id="vjTtgqNxDpk3LenjdOiB-12" value="" style="rounded=0;html=1;jettySize=auto;orthogonalLoop=1;fontSize=11;endArrow=block;endFill=0;endSize=8;strokeWidth=2;shadow=0;labelBackgroundColor=none;edgeStyle=orthogonalEdgeStyle;exitX=0.5;exitY=1;exitDx=0;exitDy=0;strokeColor=#FFB570;curved=0;fontFamily=Aptos;entryX=0.5;entryY=0;entryDx=0;entryDy=0;" edge="1" parent="WIyWlLk6GJQsqaUBKTNV-1" source="vjTtgqNxDpk3LenjdOiB-3" target="vjTtgqNxDpk3LenjdOiB-6">
          <mxGeometry relative="1" as="geometry">
            <mxPoint x="580" y="190" as="sourcePoint" />
            <mxPoint x="540" y="280" as="targetPoint" />
          </mxGeometry>
        </mxCell>
        <mxCell id="WIyWlLk6GJQsqaUBKTNV-2" value="" style="rounded=0;html=1;jettySize=auto;orthogonalLoop=1;fontSize=11;endArrow=block;endFill=0;endSize=8;strokeWidth=2;shadow=0;labelBackgroundColor=none;edgeStyle=orthogonalEdgeStyle;entryX=0.5;entryY=0;entryDx=0;entryDy=0;strokeColor=#FFB570;curved=0;fontFamily=Aptos;" parent="WIyWlLk6GJQsqaUBKTNV-1" source="WIyWlLk6GJQsqaUBKTNV-3" target="WIyWlLk6GJQsqaUBKTNV-7" edge="1">
          <mxGeometry relative="1" as="geometry">
            <mxPoint x="220" y="160" as="targetPoint" />
          </mxGeometry>
        </mxCell>
        <mxCell id="WIyWlLk6GJQsqaUBKTNV-3" value="Bước 1: Lấy ly 🥣" style="rounded=1;whiteSpace=wrap;html=1;fontSize=12;glass=0;strokeWidth=1;shadow=0;fillColor=none;align=left;spacingLeft=6;strokeColor=#0099CC;fontColor=#0099CC;fontFamily=Aptos;" parent="WIyWlLk6GJQsqaUBKTNV-1" vertex="1">
          <mxGeometry x="160" y="80" width="200" height="40" as="geometry" />
        </mxCell>
        <mxCell id="WIyWlLk6GJQsqaUBKTNV-7" value="Bước 2: Rót nước vào ly 🥛" style="rounded=1;whiteSpace=wrap;html=1;fontSize=12;glass=0;strokeWidth=1;shadow=0;fillColor=none;align=left;spacingLeft=6;strokeColor=#0099CC;fontColor=#0099CC;fontFamily=Aptos;" parent="WIyWlLk6GJQsqaUBKTNV-1" vertex="1">
          <mxGeometry x="160" y="150" width="200" height="40" as="geometry" />
        </mxCell>
        <mxCell id="WIyWlLk6GJQsqaUBKTNV-11" value="Bước 3: Đưa ly lên miệng và uống 🫗" style="rounded=1;whiteSpace=wrap;html=1;fontSize=12;glass=0;strokeWidth=1;shadow=0;fillColor=none;align=left;spacingLeft=6;strokeColor=#0099CC;fontColor=#0099CC;fontFamily=Aptos;" parent="WIyWlLk6GJQsqaUBKTNV-1" vertex="1">
          <mxGeometry x="160" y="220" width="200" height="40" as="geometry" />
        </mxCell>
        <mxCell id="vjTtgqNxDpk3LenjdOiB-1" value="Bước 1: Đặt chảo lên bếp" style="rounded=1;whiteSpace=wrap;html=1;fontSize=12;glass=0;strokeWidth=1;shadow=0;fillColor=none;align=left;spacingLeft=6;strokeColor=#0099CC;fontColor=#0099CC;fontFamily=Aptos;" vertex="1" parent="WIyWlLk6GJQsqaUBKTNV-1">
          <mxGeometry x="440" y="80" width="200" height="40" as="geometry" />
        </mxCell>
        <mxCell id="vjTtgqNxDpk3LenjdOiB-2" value="Bước 2: Đổ dầu ăn vào" style="rounded=1;whiteSpace=wrap;html=1;fontSize=12;glass=0;strokeWidth=1;shadow=0;fillColor=none;align=left;spacingLeft=6;strokeColor=#0099CC;fontColor=#0099CC;fontFamily=Aptos;" vertex="1" parent="WIyWlLk6GJQsqaUBKTNV-1">
          <mxGeometry x="440" y="150" width="200" height="40" as="geometry" />
        </mxCell>
        <mxCell id="vjTtgqNxDpk3LenjdOiB-3" value="Bước 3: Bật lửa và đợi dầu nóng 🔥" style="rounded=1;whiteSpace=wrap;html=1;fontSize=12;glass=0;strokeWidth=1;shadow=0;fillColor=none;align=left;spacingLeft=6;strokeColor=#0099CC;fontColor=#0099CC;fontFamily=Aptos;" vertex="1" parent="WIyWlLk6GJQsqaUBKTNV-1">
          <mxGeometry x="440" y="220" width="200" height="40" as="geometry" />
        </mxCell>
        <mxCell id="vjTtgqNxDpk3LenjdOiB-6" value="Bước 4: Đập trứng 🥚" style="rounded=1;whiteSpace=wrap;html=1;fontSize=12;glass=0;strokeWidth=1;shadow=0;fillColor=none;align=left;spacingLeft=6;strokeColor=#0099CC;fontColor=#0099CC;fontFamily=Aptos;" vertex="1" parent="WIyWlLk6GJQsqaUBKTNV-1">
          <mxGeometry x="440" y="290" width="200" height="40" as="geometry" />
        </mxCell>
        <mxCell id="vjTtgqNxDpk3LenjdOiB-7" value="Bước 5: Nêm gia vị 🧂" style="rounded=1;whiteSpace=wrap;html=1;fontSize=12;glass=0;strokeWidth=1;shadow=0;fillColor=none;align=left;spacingLeft=6;strokeColor=#0099CC;fontColor=#0099CC;fontFamily=Aptos;" vertex="1" parent="WIyWlLk6GJQsqaUBKTNV-1">
          <mxGeometry x="440" y="360" width="200" height="40" as="geometry" />
        </mxCell>
        <mxCell id="vjTtgqNxDpk3LenjdOiB-8" value="Bước 6: Đợi trứng chín rồi lật mặt" style="rounded=1;whiteSpace=wrap;html=1;fontSize=12;glass=0;strokeWidth=1;shadow=0;fillColor=none;align=left;spacingLeft=6;strokeColor=#0099CC;fontColor=#0099CC;fontFamily=Aptos;" vertex="1" parent="WIyWlLk6GJQsqaUBKTNV-1">
          <mxGeometry x="440" y="430" width="200" height="40" as="geometry" />
        </mxCell>
        <mxCell id="vjTtgqNxDpk3LenjdOiB-10" value="Bước 7: Khi trứng chín đều, tắt bếp và thưởng thức 🍳" style="rounded=1;whiteSpace=wrap;html=1;fontSize=12;glass=0;strokeWidth=1;shadow=0;fillColor=none;align=left;spacingLeft=6;strokeColor=#0099CC;fontColor=#0099CC;fontFamily=Aptos;" vertex="1" parent="WIyWlLk6GJQsqaUBKTNV-1">
          <mxGeometry x="440" y="500" width="200" height="40" as="geometry" />
        </mxCell>
      </root>
    </mxGraphModel>
  </diagram>
</mxfile>
